<svg width="1060" viewBox="0 0 980 362" xmlns="http://www.w3.org/2000/svg" style="background:#ffffff;font-family:sans-serif">
  <defs>
    <marker id="arr" viewBox="0 0 10 10" refX="8" refY="5" markerWidth="6" markerHeight="6" orient="auto-start-reverse">
      <path d="M2 1L8 5L2 9" fill="none" stroke="context-stroke" stroke-width="1.5" stroke-linecap="round" stroke-linejoin="round"/>
    </marker>
  </defs>

  <!-- Divider -->
  <line x1="490" y1="14" x2="490" y2="338" stroke="#cccccc" stroke-width="0.6"/>

  <!-- TODAY (LEFT) -->
  <text x="245" y="28" text-anchor="middle" font-size="15" font-weight="600" fill="#111111">Today</text>
  <line x1="20" y1="40" x2="470" y2="40" stroke="#cccccc" stroke-width="0.5"/>

  <!-- 1 central controller -->
  <rect x="145" y="50" width="200" height="48" rx="10" fill="#8B3A2A" stroke="#c0614a" stroke-width="0.8"/>
  <text x="245" y="74" text-anchor="middle" font-size="14" font-weight="600" fill="#f4c8bc" dominant-baseline="central">1 central controller</text>

  <!-- Arrows to all 6 actors -->
  <line x1="245" y1="98" x2="53"  y2="132" stroke="#888" stroke-width="0.7" marker-end="url(#arr)"/>
  <line x1="245" y1="98" x2="127" y2="132" stroke="#888" stroke-width="0.7" marker-end="url(#arr)"/>
  <line x1="245" y1="98" x2="201" y2="132" stroke="#888" stroke-width="0.7" marker-end="url(#arr)"/>
  <line x1="245" y1="98" x2="275" y2="132" stroke="#888" stroke-width="0.7" marker-end="url(#arr)"/>
  <line x1="245" y1="98" x2="359" y2="132" stroke="#888" stroke-width="0.7" marker-end="url(#arr)"/>
  <line x1="245" y1="98" x2="433" y2="132" stroke="#888" stroke-width="0.7" marker-end="url(#arr)"/>

  <!-- ALL 6 ACTORS - uniform, all called "Actor N" -->
  <rect x="22"  y="132" width="62" height="42" rx="8" fill="#f0f0f0" stroke="#bbbbbb" stroke-width="0.5"/>
  <text x="53"  y="153" text-anchor="middle" font-size="12" fill="#111111" dominant-baseline="central">Arm 1</text>

  <rect x="96"  y="132" width="62" height="42" rx="8" fill="#f0f0f0" stroke="#bbbbbb" stroke-width="0.5"/>
  <text x="127" y="153" text-anchor="middle" font-size="12" fill="#111111" dominant-baseline="central">Arm 2</text>

  <rect x="170" y="132" width="62" height="42" rx="8" fill="#f0f0f0" stroke="#bbbbbb" stroke-width="0.5"/>
  <text x="201" y="153" text-anchor="middle" font-size="12" fill="#111111" dominant-baseline="central">Shuttle</text>

  <rect x="244" y="132" width="62" height="42" rx="8" fill="#f0f0f0" stroke="#bbbbbb" stroke-width="0.5"/>
  <text x="275" y="153" text-anchor="middle" font-size="12" fill="#111111" dominant-baseline="central">Belt</text>

  <rect x="328" y="132" width="62" height="42" rx="8" fill="#f0f0f0" stroke="#bbbbbb" stroke-width="0.5"/>
  <text x="359" y="153" text-anchor="middle" font-size="12" fill="#111111" dominant-baseline="central">Arm 3</text>

  <rect x="402" y="132" width="62" height="42" rx="8" fill="#f0f0f0" stroke="#bbbbbb" stroke-width="0.5"/>
  <text x="433" y="153" text-anchor="middle" font-size="12" fill="#111111" dominant-baseline="central">Arm 4</text>

  <!-- No peer arrows - actors cannot communicate -->

  <!-- All actors label -->
  <text x="245" y="192" text-anchor="middle" font-size="11" fill="#111111" font-style="italic">All actors</text>

  <!-- Summary box -->
  <rect x="22" y="222" width="446" height="116" rx="8" fill="none" stroke="#aaaaaa" stroke-width="0.8"/>
  <text x="245" y="248" text-anchor="middle" font-size="12" fill="#111111">All decisions bottleneck through one central controller</text>
  <text x="245" y="268" text-anchor="middle" font-size="12" fill="#111111">No actor can communicate with each other</text>
  <text x="245" y="288" text-anchor="middle" font-size="12" fill="#111111">No actor can act without instruction</text>
  <text x="245" y="308" text-anchor="middle" font-size="12" fill="#111111">No dedicated intelligence</text>
  <text x="245" y="328" text-anchor="middle" font-size="11" fill="#888888">Stops scaling with many actors: latency · unreliable links · computation</text>

  <!-- INTER.act (RIGHT) -->
  <text x="735" y="28" text-anchor="middle" font-size="15" font-weight="600" fill="#111111">INTER.act</text>
  <line x1="510" y1="40" x2="960" y2="40" stroke="#cccccc" stroke-width="0.5"/>

  <!-- Observer -->
  <rect x="605" y="48" width="260" height="60" rx="10" fill="#0f5c4a" stroke="#1a9e7e" stroke-width="0.8"/>
  <text x="735" y="68" text-anchor="middle" font-size="14" font-weight="600" fill="#9be8d0" dominant-baseline="central">Observer (emergent)</text>
  <text x="735" y="88" text-anchor="middle" font-size="11" fill="#6fcfb5" dominant-baseline="central">sets goal · observes · intervenes only on deadlock</text>

  <!-- ONE-WAY arrows: observer → each actor brain -->
  <line x1="630" y1="108" x2="541" y2="132" stroke="#888" stroke-width="0.7" marker-end="url(#arr)"/>
  <line x1="665" y1="108" x2="619" y2="132" stroke="#888" stroke-width="0.7" marker-end="url(#arr)"/>
  <line x1="706" y1="108" x2="697" y2="132" stroke="#888" stroke-width="0.7" marker-end="url(#arr)"/>
  <line x1="752" y1="108" x2="775" y2="132" stroke="#888" stroke-width="0.7" marker-end="url(#arr)"/>
  <line x1="795" y1="108" x2="863" y2="132" stroke="#888" stroke-width="0.7" marker-end="url(#arr)"/>
  <line x1="830" y1="108" x2="941" y2="132" stroke="#888" stroke-width="0.7" marker-end="url(#arr)"/>

  <!-- ALL 6 ACTOR BRAINS - uniform style, all actors -->
  <rect x="510" y="132" width="62" height="52" rx="9" fill="#231f6e" stroke="#5b52cc" stroke-width="0.8"/>
  <text x="541" y="151" text-anchor="middle" font-size="12" font-weight="600" fill="#ffffff" dominant-baseline="central">Brain 1</text>
  <text x="541" y="170" text-anchor="middle" font-size="10" fill="#9b96ef" dominant-baseline="central">Arm 1</text>

  <rect x="588" y="132" width="62" height="52" rx="9" fill="#231f6e" stroke="#5b52cc" stroke-width="0.8"/>
  <text x="619" y="151" text-anchor="middle" font-size="12" font-weight="600" fill="#ffffff" dominant-baseline="central">Brain 2</text>
  <text x="619" y="170" text-anchor="middle" font-size="10" fill="#9b96ef" dominant-baseline="central">Arm 2</text>

  <rect x="666" y="132" width="62" height="52" rx="9" fill="#231f6e" stroke="#5b52cc" stroke-width="0.8"/>
  <text x="697" y="151" text-anchor="middle" font-size="12" font-weight="600" fill="#ffffff" dominant-baseline="central">Brain 3</text>
  <text x="697" y="170" text-anchor="middle" font-size="10" fill="#9b96ef" dominant-baseline="central">Shuttle</text>

  <rect x="744" y="132" width="62" height="52" rx="9" fill="#231f6e" stroke="#5b52cc" stroke-width="0.8"/>
  <text x="775" y="151" text-anchor="middle" font-size="12" font-weight="600" fill="#ffffff" dominant-baseline="central">Brain 4</text>
  <text x="775" y="170" text-anchor="middle" font-size="10" fill="#9b96ef" dominant-baseline="central">Belt</text>

  <rect x="832" y="132" width="62" height="52" rx="9" fill="#231f6e" stroke="#5b52cc" stroke-width="0.8"/>
  <text x="863" y="151" text-anchor="middle" font-size="12" font-weight="600" fill="#ffffff" dominant-baseline="central">Brain 5</text>
  <text x="863" y="170" text-anchor="middle" font-size="10" fill="#9b96ef" dominant-baseline="central">Arm 3</text>

  <rect x="910" y="132" width="62" height="52" rx="9" fill="#231f6e" stroke="#5b52cc" stroke-width="0.8"/>
  <text x="941" y="151" text-anchor="middle" font-size="12" font-weight="600" fill="#ffffff" dominant-baseline="central">Brain 6</text>
  <text x="941" y="170" text-anchor="middle" font-size="10" fill="#9b96ef" dominant-baseline="central">Arm 4</text>

  <!-- PEER arrows - all actors communicate directly -->
  <line x1="572" y1="158" x2="588" y2="158" stroke="#888" stroke-width="0.8" stroke-dasharray="3 2" marker-start="url(#arr)" marker-end="url(#arr)"/>
  <line x1="650" y1="158" x2="666" y2="158" stroke="#888" stroke-width="0.8" stroke-dasharray="3 2" marker-start="url(#arr)" marker-end="url(#arr)"/>
  <line x1="728" y1="158" x2="744" y2="158" stroke="#888" stroke-width="0.8" stroke-dasharray="3 2" marker-start="url(#arr)" marker-end="url(#arr)"/>
  <line x1="806" y1="158" x2="832" y2="158" stroke="#888" stroke-width="0.8" stroke-dasharray="3 2" marker-start="url(#arr)" marker-end="url(#arr)"/>
  <line x1="894" y1="158" x2="910" y2="158" stroke="#888" stroke-width="0.8" stroke-dasharray="3 2" marker-start="url(#arr)" marker-end="url(#arr)"/>

  <!-- All actors label -->
  <text x="735" y="198" text-anchor="middle" font-size="11" fill="#9b96ef" font-style="italic">All actors</text>

  <!-- Caption -->
  <text x="735" y="218" text-anchor="middle" font-size="11" fill="#111111">all actors communicate directly · no routing through observer</text>

  <!-- Summary box -->
  <rect x="502" y="234" width="458" height="114" rx="8" fill="none" stroke="#aaaaaa" stroke-width="0.8"/>
  <text x="731" y="258" text-anchor="middle" font-size="12" fill="#111111">Every actor reasons independently</text>
  <text x="731" y="278" text-anchor="middle" font-size="12" fill="#111111">Any actor can negotiate directly with each other</text>
  <text x="731" y="298" text-anchor="middle" font-size="12" fill="#111111">Chains self-assemble through peer requests</text>
  <text x="731" y="318" text-anchor="middle" font-size="12" fill="#111111">Observer sets goal, observes - steps in only on deadlock</text>
  <text x="731" y="338" text-anchor="middle" font-size="12" fill="#111111">No routing through observer</text>
</svg>
